<svg width="32" height="38" viewBox="0 0 32 38" fill="none" xmlns="http://www.w3.org/2000/svg">
<path d="M19.3337 2.33325H6.00033C5.11627 2.33325 4.26842 2.68444 3.6433 3.30956C3.01818 3.93468 2.66699 4.78253 2.66699 5.66659V32.3333C2.66699 33.2173 3.01818 34.0652 3.6433 34.6903C4.26842 35.3154 5.11627 35.6666 6.00033 35.6666H26.0003C26.8844 35.6666 27.7322 35.3154 28.3573 34.6903C28.9825 34.0652 29.3337 33.2173 29.3337 32.3333V12.3333M19.3337 2.33325L29.3337 12.3333M19.3337 2.33325V12.3333H29.3337M22.667 20.6666H9.33366M22.667 27.3333H9.33366M12.667 13.9999H9.33366" stroke="white" stroke-width="4" stroke-linecap="round" stroke-linejoin="round"/>
</svg>
