<svg width="55" height="55" viewBox="0 0 55 55" fill="none" xmlns="http://www.w3.org/2000/svg">
<rect width="55" height="55" rx="10" fill="#B8ADEE"/>
<path d="M31.3337 11.3334H18.0003C17.1163 11.3334 16.2684 11.6846 15.6433 12.3097C15.0182 12.9348 14.667 13.7827 14.667 14.6667V41.3334C14.667 42.2174 15.0182 43.0653 15.6433 43.6904C16.2684 44.3155 17.1163 44.6667 18.0003 44.6667H38.0003C38.8844 44.6667 39.7322 44.3155 40.3573 43.6904C40.9825 43.0653 41.3337 42.2174 41.3337 41.3334V21.3334M31.3337 11.3334L41.3337 21.3334M31.3337 11.3334V21.3334H41.3337M34.667 29.6667H21.3337M34.667 36.3334H21.3337M24.667 23H21.3337" stroke="white" stroke-width="4" stroke-linecap="round" stroke-linejoin="round"/>
</svg>
