<svg width="55" height="55" viewBox="0 0 55 55" fill="none" xmlns="http://www.w3.org/2000/svg">
<rect width="55" height="55" rx="10" fill="#3343A1"/>
<path d="M31.3337 11.3333H18.0003C17.1163 11.3333 16.2684 11.6844 15.6433 12.3096C15.0182 12.9347 14.667 13.7825 14.667 14.6666V41.3333C14.667 42.2173 15.0182 43.0652 15.6433 43.6903C16.2684 44.3154 17.1163 44.6666 18.0003 44.6666H38.0003C38.8844 44.6666 39.7322 44.3154 40.3573 43.6903C40.9825 43.0652 41.3337 42.2173 41.3337 41.3333V21.3333M31.3337 11.3333L41.3337 21.3333M31.3337 11.3333V21.3333H41.3337M34.667 29.6666H21.3337M34.667 36.3333H21.3337M24.667 22.9999H21.3337" stroke="white" stroke-width="4" stroke-linecap="round" stroke-linejoin="round"/>
</svg>
