<svg width="191" height="60" viewBox="0 0 191 60" fill="none" xmlns="http://www.w3.org/2000/svg">
<path d="M63.125 47.3516C61.3047 47.3516 59.7305 46.9648 58.4023 46.1914C57.082 45.4102 56.0625 44.3242 55.3437 42.9336C54.625 41.5352 54.2656 39.9141 54.2656 38.0703C54.2656 36.2109 54.625 34.5859 55.3437 33.1953C56.0625 31.7969 57.082 30.7109 58.4023 29.9375C59.7305 29.1562 61.3047 28.7656 63.125 28.7656C64.9453 28.7656 66.5156 29.1562 67.8359 29.9375C69.1641 30.7109 70.1875 31.7969 70.9062 33.1953C71.625 34.5859 71.9844 36.2109 71.9844 38.0703C71.9844 39.9141 71.625 41.5352 70.9062 42.9336C70.1875 44.3242 69.1641 45.4102 67.8359 46.1914C66.5156 46.9648 64.9453 47.3516 63.125 47.3516ZM63.1484 43.4844C63.9766 43.4844 64.668 43.25 65.2227 42.7813C65.7773 42.3047 66.1953 41.6562 66.4766 40.8359C66.7656 40.0156 66.9102 39.082 66.9102 38.0352C66.9102 36.9883 66.7656 36.0547 66.4766 35.2344C66.1953 34.4141 65.7773 33.7656 65.2227 33.2891C64.668 32.8125 63.9766 32.5742 63.1484 32.5742C62.3125 32.5742 61.6094 32.8125 61.0391 33.2891C60.4766 33.7656 60.0508 34.4141 59.7617 35.2344C59.4805 36.0547 59.3398 36.9883 59.3398 38.0352C59.3398 39.082 59.4805 40.0156 59.7617 40.8359C60.0508 41.6562 60.4766 42.3047 61.0391 42.7813C61.6094 43.25 62.3125 43.4844 63.1484 43.4844ZM83.0333 47.3516C81.213 47.3516 79.6388 46.9648 78.3106 46.1914C76.9903 45.4102 75.9708 44.3242 75.252 42.9336C74.5333 41.5352 74.1739 39.9141 74.1739 38.0703C74.1739 36.2109 74.5333 34.5859 75.252 33.1953C75.9708 31.7969 76.9903 30.7109 78.3106 29.9375C79.6388 29.1562 81.213 28.7656 83.0333 28.7656C84.8536 28.7656 86.4239 29.1562 87.7442 29.9375C89.0723 30.7109 90.0958 31.7969 90.8145 33.1953C91.5333 34.5859 91.8927 36.2109 91.8927 38.0703C91.8927 39.9141 91.5333 41.5352 90.8145 42.9336C90.0958 44.3242 89.0723 45.4102 87.7442 46.1914C86.4239 46.9648 84.8536 47.3516 83.0333 47.3516ZM83.0567 43.4844C83.8848 43.4844 84.5763 43.25 85.1309 42.7813C85.6856 42.3047 86.1036 41.6562 86.3848 40.8359C86.6739 40.0156 86.8184 39.082 86.8184 38.0352C86.8184 36.9883 86.6739 36.0547 86.3848 35.2344C86.1036 34.4141 85.6856 33.7656 85.1309 33.2891C84.5763 32.8125 83.8848 32.5742 83.0567 32.5742C82.2208 32.5742 81.5177 32.8125 80.9473 33.2891C80.3848 33.7656 79.9591 34.4141 79.67 35.2344C79.3888 36.0547 79.2481 36.9883 79.2481 38.0352C79.2481 39.082 79.3888 40.0156 79.67 40.8359C79.9591 41.6562 80.3848 42.3047 80.9473 42.7813C81.5177 43.25 82.2208 43.4844 83.0567 43.4844ZM101.442 47.293C100.074 47.293 98.8361 46.9414 97.7267 46.2383C96.6252 45.5273 95.7502 44.4844 95.1017 43.1094C94.4611 41.7266 94.1408 40.0312 94.1408 38.0234C94.1408 35.9609 94.4728 34.2461 95.1369 32.8789C95.8009 31.5039 96.6838 30.4766 97.7853 29.7969C98.8947 29.1094 100.11 28.7656 101.43 28.7656C102.438 28.7656 103.278 28.9375 103.949 29.2813C104.629 29.6172 105.176 30.0391 105.59 30.5469C106.012 31.0469 106.332 31.5391 106.551 32.0234H106.703V23H111.684V47H106.762V44.1172H106.551C106.317 44.6172 105.985 45.1133 105.555 45.6055C105.133 46.0898 104.582 46.4922 103.903 46.8125C103.231 47.1328 102.41 47.293 101.442 47.293ZM103.024 43.3203C103.828 43.3203 104.508 43.1016 105.063 42.6641C105.625 42.2187 106.055 41.5977 106.352 40.8008C106.656 40.0039 106.809 39.0703 106.809 38C106.809 36.9297 106.66 36 106.363 35.2109C106.067 34.4219 105.637 33.8125 105.074 33.3828C104.512 32.9531 103.828 32.7383 103.024 32.7383C102.203 32.7383 101.512 32.9609 100.949 33.4062C100.387 33.8516 99.9611 34.4687 99.672 35.2578C99.383 36.0469 99.2384 36.9609 99.2384 38C99.2384 39.0469 99.383 39.9727 99.672 40.7773C99.9689 41.5742 100.395 42.1992 100.949 42.6523C101.512 43.0977 102.203 43.3203 103.024 43.3203ZM120.45 23V47H115.458V23H120.45ZM132.323 47.3516C130.471 47.3516 128.877 46.9766 127.541 46.2266C126.213 45.4687 125.19 44.3984 124.471 43.0156C123.752 41.625 123.393 39.9805 123.393 38.082C123.393 36.2305 123.752 34.6055 124.471 33.207C125.19 31.8086 126.201 30.7187 127.506 29.9375C128.819 29.1562 130.358 28.7656 132.123 28.7656C133.311 28.7656 134.416 28.957 135.44 29.3398C136.471 29.7148 137.369 30.2812 138.135 31.0391C138.909 31.7969 139.51 32.75 139.94 33.8984C140.369 35.0391 140.584 36.375 140.584 37.9062V39.2773H125.385V36.1836H135.885C135.885 35.4648 135.729 34.8281 135.416 34.2734C135.104 33.7187 134.67 33.2852 134.116 32.9727C133.569 32.6523 132.932 32.4922 132.205 32.4922C131.448 32.4922 130.776 32.668 130.19 33.0195C129.612 33.3633 129.159 33.8281 128.83 34.4141C128.502 34.9922 128.334 35.6367 128.326 36.3477V39.2891C128.326 40.1797 128.491 40.9492 128.819 41.5977C129.155 42.2461 129.627 42.7461 130.237 43.0977C130.846 43.4492 131.569 43.625 132.405 43.625C132.959 43.625 133.467 43.5469 133.928 43.3906C134.389 43.2344 134.784 43 135.112 42.6875C135.44 42.375 135.69 41.9922 135.862 41.5391L140.479 41.8438C140.244 42.9531 139.764 43.9219 139.037 44.75C138.319 45.5703 137.389 46.2109 136.248 46.6719C135.116 47.125 133.807 47.3516 132.323 47.3516ZM157.258 47V50.7852H141.496V47H157.258ZM165.726 23V47H160.652V27.8164H160.511L155.015 31.2617V26.7617L160.957 23H165.726ZM172.776 47.3047C172.003 47.3047 171.338 47.0313 170.784 46.4844C170.237 45.9297 169.963 45.2656 169.963 44.4922C169.963 43.7266 170.237 43.0703 170.784 42.5234C171.338 41.9766 172.003 41.7031 172.776 41.7031C173.526 41.7031 174.182 41.9766 174.745 42.5234C175.307 43.0703 175.588 43.7266 175.588 44.4922C175.588 45.0078 175.456 45.4805 175.19 45.9102C174.932 46.332 174.592 46.6719 174.17 46.9297C173.749 47.1797 173.284 47.3047 172.776 47.3047ZM186.755 23V47H181.68V27.8164H181.54L176.044 31.2617V26.7617L181.985 23H186.755Z" fill="#BFAAE2"/>
<path d="M49.5322 47.5557H39.0693L44.6445 21.4844C44.8916 20.3887 44.7412 19.3896 44.1719 18.7236C43.6348 18.0684 42.7002 17.6924 41.5723 17.6924H36.2764L29.8848 47.5557H19.4219L25.8135 17.6924H16.8545L10.4629 47.5557H0L6.3916 17.6924L1.60059 7.44434H41.5723C45.8047 7.44434 49.6611 9.19531 52.1318 12.2676C54.6348 15.3398 55.5479 19.5078 54.667 23.6436L49.5322 47.5557Z" fill="url(#paint0_linear_172_765)"/>
<defs>
<linearGradient id="paint0_linear_172_765" x1="27.4972" y1="7.44434" x2="27.4972" y2="47.5557" gradientUnits="userSpaceOnUse">
<stop stop-color="#2F2E72"/>
<stop offset="0.51" stop-color="#7E57C2"/>
<stop offset="1" stop-color="#BFAAE2"/>
</linearGradient>
</defs>
</svg>
