<svg width="1484" height="904" viewBox="0 0 1484 904" fill="none" xmlns="http://www.w3.org/2000/svg">
<rect width="1480" height="900" transform="translate(2 2)" fill="url(#paint0_linear_1101_2857)"/>
<path d="M2.44722 2.11247C495.532 2.55871 988.617 1.70807 1481.7 2.11247C1481.2 301.931 1482.18 601.749 1481.7 901.568C988.617 902.144 495.532 902.144 2.44722 901.568C1.85093 601.749 1.85093 301.931 2.44722 2.11247Z" stroke="#F8F9FE" stroke-opacity="0.78" stroke-width="3" stroke-miterlimit="10"/>
<path d="M2.44727 858.758C140.649 859.274 282.244 839.416 419.62 854.798C534.291 867.641 634.697 874.823 751.042 863.96C804.662 858.953 855.186 857.81 909.287 857.28C964.559 856.736 1017.22 848.676 1071.52 843.502C1212.09 830.115 1342.45 859.916 1481.72 858.842" stroke="#F8F9FE" stroke-opacity="0.78" stroke-width="3" stroke-miterlimit="10"/>
<path d="M2.44727 815.902C150.212 811.942 322.264 762.507 462.277 806.252C516.953 823.321 570.802 849.622 633.71 854.391C684.991 858.295 726.663 846.554 770.582 832.581C818.078 817.478 854.383 814.452 906.948 809.404C960.385 804.286 999.258 784.303 1046.09 769.661C1190.9 724.325 1337.35 807.312 1481.7 815.902" stroke="#F8F9FE" stroke-opacity="0.78" stroke-width="3" stroke-miterlimit="10"/>
<path d="M2.44727 773.051C103.037 767.473 199.062 748.326 297.289 735.092C384.989 723.281 437.577 721.231 506.793 757.558C556.698 783.747 608.254 828.12 676.139 838.341C728.887 846.262 760.995 823.56 790.97 801.708C802.735 793.146 813.583 783.579 828.33 776.607C853.557 764.865 876.171 766.845 904.357 761.267C958.963 750.237 982.104 718.386 1019.53 694.596C1076.68 658.339 1133.01 668.31 1202.75 690.064C1295.04 718.874 1378.29 760.166 1481.61 773.051" stroke="#F8F9FE" stroke-opacity="0.78" stroke-width="3" stroke-miterlimit="10"/>
<path d="M2.44727 730.225C110.926 723.755 213.212 699.407 318.251 682.979C412.533 668.253 464.525 665.576 531.951 710.395C578.347 741.242 627.931 799.058 699.99 811.358C757.578 821.119 781.682 791.346 802.46 765.59C810.923 755.103 817.78 742.873 831.013 734.046C854.406 718.428 874.588 723.002 903.554 716.071C960.408 702.433 974.26 661.406 1003.89 632.749C1052.05 586.187 1116.93 601.777 1185.74 626.934C1282.45 662.299 1369.09 715.137 1481.59 730.211" stroke="#F8F9FE" stroke-opacity="0.78" stroke-width="3" stroke-miterlimit="10"/>
<path d="M2.44727 687.418C111.041 681.38 213.075 656.125 317.976 639.433C358.477 632.99 412.946 621.304 455.099 629.671C485.693 635.779 510.347 653.099 530.369 667.253C575.366 699.048 622.106 759.165 695.013 771.548C759.229 782.453 777.576 747.507 794.502 718.697C801.657 706.523 806.542 691.671 819.936 681.143C841.746 664.032 860.85 668.09 891.261 661.717C945.019 650.436 977.998 619.743 1018.98 597.821C1036.11 588.659 1056.57 577.67 1078.95 573.445C1122.78 565.162 1168.24 582.412 1205.09 595.283C1296.58 627.287 1376.59 672.943 1481.66 687.32" stroke="#F8F9FE" stroke-opacity="0.78" stroke-width="3" stroke-miterlimit="10"/>
<path d="M2.44727 644.579C109.963 638.457 210.598 612.882 314.352 595.953C353.936 589.482 408.841 577.308 450.031 586.261C480.189 592.829 503.513 611.194 522.113 625.795C563.05 657.869 606.579 722.629 678.272 735.25C749.964 747.87 760.238 691.462 768.884 662.735C780.787 623.159 786.406 592.787 859.52 587.711C925.892 583.095 992.814 580.027 1059.32 575.941C1130.42 571.577 1192.82 566.863 1260.16 585.912C1334.72 607.053 1398.24 637.314 1481.7 644.565" stroke="#F8F9FE" stroke-opacity="0.78" stroke-width="3" stroke-miterlimit="10"/>
<path d="M2.44727 601.753C108.701 595.477 207.754 569.568 309.972 552.373C348.455 545.903 403.841 533.143 443.838 542.793C473.469 549.947 495.211 569.54 512.205 584.628C545.391 614.01 590.869 690.917 658.732 699.926C737.327 710.371 734.85 633.729 739.001 604.737C743.932 570.223 740.4 502.199 823.216 509.311C919.034 517.553 1012.4 540.478 1104.89 556.724C1143.65 563.543 1183.72 570.892 1223.62 574.853C1256.97 578.172 1289.88 576.777 1323 581.351C1377.79 588.923 1424.27 601.683 1481.77 601.781" stroke="#F8F9FE" stroke-opacity="0.78" stroke-width="3" stroke-miterlimit="10"/>
<path d="M2.44727 558.91C107.944 552.607 205.759 526.404 306.99 509.029C344.832 502.53 400.584 489.506 440.008 499.407C469.433 506.867 490.051 527.297 505.898 542.706C536.125 571.991 578.439 653.206 645.567 662.173C728.52 673.329 717.328 579.381 719.071 551.645C721.112 518.832 709.278 430.671 797.529 441.479C915.961 455.982 1028.84 501.192 1137.53 531.104C1214.01 552.161 1282.01 570.066 1366.87 565.185C1405.19 562.982 1443.33 560.458 1481.79 558.952" stroke="#F8F9FE" stroke-opacity="0.78" stroke-width="3" stroke-miterlimit="10"/>
<path d="M2.44727 516.085C108.38 509.88 206.722 483.244 308.366 465.688C346.804 459.05 402.213 446.025 442.072 456.372C470.901 463.861 490.83 483.217 506.288 498.486C535.529 527.339 573.783 604.72 639.65 613.686C720.058 624.633 714.737 534.395 718.292 506.31C722.489 473.204 715.998 389.645 801.657 398.04C918.186 409.489 1029.55 463.443 1131.91 495.488C1203.01 517.689 1277.77 541.047 1359.74 530.128C1402.21 524.466 1436.96 516.183 1481.68 516.043" stroke="#F8F9FE" stroke-opacity="0.78" stroke-width="3" stroke-miterlimit="10"/>
<path d="M2.44727 473.26C110.857 466.678 211.63 439.22 315.659 421.078C397.741 406.77 459.021 397.483 507.687 445.942C534.979 473.107 561.193 533.796 621.67 542.804C694.624 553.723 712.65 485.63 725.424 456.735C739.666 424.536 756.179 360.947 832.55 370.36C929.401 382.297 1014.56 439.206 1092.67 471.991C1161.61 500.927 1222.38 519.153 1306.44 503.842C1366.73 492.853 1417.39 475.366 1481.75 473.246" stroke="#F8F9FE" stroke-opacity="0.78" stroke-width="3" stroke-miterlimit="10"/>
<path d="M2.44727 430.425C114.022 423.271 217.822 394.879 324.879 376.039C394.553 363.754 463.676 348.233 508.926 389.984C535.598 414.597 544.267 455.01 598.621 463.893C662.837 474.394 705.311 431.471 734.621 405.101C764.435 378.229 806.588 335.445 871.194 347.271C945.592 360.867 995.428 421.472 1043.36 454.145C1063.13 467.602 1090.6 486.595 1120.05 492.857C1157.85 500.875 1203.37 489.942 1238.58 481.994C1320.08 463.6 1394.05 436.909 1481.68 430.397" stroke="#F8F9FE" stroke-opacity="0.78" stroke-width="3" stroke-miterlimit="10"/>
<path d="M2.44727 387.581C116.522 380.065 222.73 350.864 332.172 331.396C388.085 321.453 470.878 300.801 510.302 337.448C533.809 359.3 532.64 385.531 580.618 393.019C638.916 402.112 698.339 374.375 741.73 355.521C781.636 338.174 848.672 305.445 902.063 319.571C963.091 335.719 978.709 398.472 1004.01 430.643C1014.72 444.24 1030.54 463.804 1054.69 470.903C1091.87 481.835 1151.43 463.846 1185.19 455.702C1283.69 431.996 1375.54 397.398 1481.59 387.623" stroke="#F8F9FE" stroke-opacity="0.78" stroke-width="3" stroke-miterlimit="10"/>
<path d="M2.44727 344.774C116.361 337.885 221.285 307.29 330.016 287.307C387.512 276.736 464.043 258.566 508.283 292.397C533.511 311.724 539.497 335.724 583.829 342.417C638.871 350.784 703.086 325.167 747.67 309.591C788.287 295.423 862.938 264.576 912.384 277.35C973.113 293.052 978.296 358.873 997.951 390.821C1006.76 405.142 1019.3 423.996 1043.64 431.457C1080.54 442.794 1143.95 424.038 1177.04 415.894C1277.95 391.016 1371.82 353.141 1481.56 344.774" stroke="#F8F9FE" stroke-opacity="0.78" stroke-width="3" stroke-miterlimit="10"/>
<path d="M2.44727 301.935C108.999 294.586 202.502 260.686 301.922 238.527C375.128 222.197 430.605 216.912 498.376 240.605C543.877 256.516 585.709 281.91 639.857 286.624C698.866 291.811 744.528 270.378 789.548 250.813C825.647 235.111 888.67 203.051 937.703 215.002C1000.08 230.258 1013.18 302.632 1035.54 334.832C1045.4 349.055 1059.39 369.471 1084.16 377.029C1118.77 387.572 1179.15 372.232 1210.6 364.381C1301.81 341.651 1380.42 305.812 1481.5 301.879" stroke="#F8F9FE" stroke-opacity="0.78" stroke-width="3" stroke-miterlimit="10"/>
<path d="M2.44727 259.096C98.6561 250.059 175.692 212.324 261.603 187.139C342.102 163.558 404.3 168.732 486.863 184.211C563.027 198.504 640.522 220.384 720.791 224.763C781.2 228.054 812.826 209.047 851.814 184.322C880.987 165.859 927.749 133.102 977.264 144.147C1002.22 149.725 1019.83 170.642 1030.86 183.402C1056.89 213.384 1074.16 245.652 1098.7 275.913C1110.7 290.737 1128.52 314.206 1155.35 322.211C1187.2 331.721 1237.91 321.374 1266.99 313.16C1341.8 292.062 1394.55 259.319 1481.52 258.998" stroke="#F8F9FE" stroke-opacity="0.78" stroke-width="3" stroke-miterlimit="10"/>
<path d="M2.44727 216.257C90.9503 206.021 152.207 164.786 226.422 136.84C307.564 106.3 387.283 119.018 476.084 129.728C579.838 142.278 685.496 161.606 791.635 165.399C853.557 167.617 875.23 150.464 905.847 121.096C928.231 99.6345 961.279 66.2082 1013.32 77.95C1041.73 84.3507 1065.74 109.661 1079.83 123.676C1114.07 157.604 1139.98 194.433 1172.85 228.835C1209.84 267.505 1260.48 305.645 1337.35 273.334C1392.6 250.115 1405.22 217.414 1481.61 216.159" stroke="#F8F9FE" stroke-opacity="0.78" stroke-width="3" stroke-miterlimit="10"/>
<path d="M2.44727 173.417C89.3678 163.181 143.103 121.109 213.442 92.0617C293.161 59.1793 380.471 74.9093 469.571 83.9317C583.622 95.4782 699.233 112.784 814.959 117.26C876.515 119.631 895.848 102.52 922.176 72.19C943.207 47.9674 971.898 15.5871 1027.31 30.4525C1061.5 39.6283 1093.15 68.9129 1112.97 86.0653C1157.71 124.763 1194.52 166.598 1238 205.783C1269.72 234.385 1353.32 310.818 1405.88 253.866C1429.5 228.263 1414.07 176.011 1481.77 173.431" stroke="#F8F9FE" stroke-opacity="0.78" stroke-width="3" stroke-miterlimit="10"/>
<path d="M2.44727 130.576C84.0929 121.637 142.346 88.6714 213.075 65.2437C292.266 39.027 372.009 50.6572 457.301 58.2712C560.344 67.5586 664.305 81.2526 768.517 84.9341C825.486 86.9422 852.25 72.9832 887.936 48.5794C918.966 27.355 955.683 2.37948 1007.19 16.9381C1042.12 26.8112 1074.8 50.6991 1098.93 67.8236C1145.19 100.762 1185.05 136.81 1230.32 170.236C1270.27 199.758 1351.57 265.062 1403.31 210.886C1428.54 184.474 1422.81 140.533 1482 130.688" stroke="#F8F9FE" stroke-opacity="0.78" stroke-width="3" stroke-miterlimit="10"/>
<path d="M2.44727 87.7809C78.13 84.0715 141.681 63.1958 212.478 49.1531C285.18 34.72 357.766 40.5211 432.325 45.4716C564.885 54.2989 702.949 77.5452 827.045 40.0331C870.437 26.9387 917.154 12.659 966.944 21.263C1049.19 35.4452 1112.35 84.978 1176.08 116.438C1231.12 143.631 1290.45 168.899 1356.73 139.949C1401.57 120.426 1424.92 96.7197 1481.75 87.8646" stroke="#F8F9FE" stroke-opacity="0.78" stroke-width="3" stroke-miterlimit="10"/>
<path d="M2.44727 44.9825C73.5432 45.4287 141.727 36.8943 211.905 32.0275C276.878 27.5233 343.364 29.378 408.566 31.4C529.612 35.1233 648.297 40.7292 768.632 30.0055C821.266 25.306 874.129 21.1783 927.474 23.033C993.249 25.32 1052.92 43.9505 1114.48 56.3616C1241.31 81.9229 1354.78 47.9946 1481.63 44.9546" stroke="#F8F9FE" stroke-opacity="0.78" stroke-width="3" stroke-miterlimit="10"/>
<path d="M1411.2 2.0874C1412.37 51.6202 1435.53 99.0333 1441.49 148.106C1445.85 184.14 1422.32 215.767 1410.07 250.379C1385.49 319.755 1383.56 390.513 1411.27 459.429C1424.36 492.019 1432.6 522.293 1430.55 556.04C1428.65 587.403 1413.79 615 1403.03 645.456C1373.84 728.624 1412.21 817.594 1411.24 901.612" stroke="#F8F9FE" stroke-opacity="0.78" stroke-width="3" stroke-miterlimit="10"/>
<path d="M1340.81 2.11475C1351.91 63.5845 1400.96 118.389 1420.73 178.561C1429.72 205.935 1426.24 214.275 1399.31 233.881C1380.96 247.213 1364.04 258.285 1349.08 273.388C1314.27 308.543 1286.75 350.685 1282.35 392.088C1278.49 428.038 1305.28 449.918 1340.81 476.037C1373.26 499.883 1408.85 525.207 1398.74 558.871C1389.86 588.364 1350.58 597.066 1319.55 616.826C1273.08 646.487 1290.51 688.392 1299.59 725.319C1314.06 784.055 1336.15 842.094 1340.87 901.57" stroke="#F8F9FE" stroke-opacity="0.78" stroke-width="3" stroke-miterlimit="10"/>
<path d="M1270.44 2.15771C1293.88 75.9409 1366.47 138.54 1401.58 209.939C1416.53 240.367 1419.13 251.174 1371.93 262.4C1340.83 269.791 1312.3 283.513 1289 297.667C1236.8 329.211 1182.61 376.61 1171.8 422.378C1162.47 461.842 1221.23 478.158 1270.42 493.358C1305.97 504.347 1391.4 527.635 1368.51 561.689C1349.08 590.639 1274.02 581.072 1235.68 587.013C1152.54 599.898 1187.08 651.802 1200.68 691.294C1224.85 761.298 1259.25 830.201 1270.35 901.516" stroke="#F8F9FE" stroke-opacity="0.78" stroke-width="3" stroke-miterlimit="10"/>
<path d="M1199.99 2.14062C1229.43 84.5279 1318.99 152.845 1365.85 231.509C1387.75 268.24 1379.33 271.545 1324.56 277.123C1286.77 280.916 1249.71 294.024 1220.03 308.206C1157.86 338.063 1088.41 389.297 1077.06 439.29C1067.01 483.468 1145.29 493.257 1199.94 503.088C1231.73 508.806 1354.22 526.683 1321.95 564.112C1296.88 593.173 1193.75 569.871 1155.91 569.244C1054.61 567.598 1097.31 630.323 1113.18 671.043C1143 747.587 1186.82 823.043 1199.92 901.512" stroke="#F8F9FE" stroke-opacity="0.78" stroke-width="3" stroke-miterlimit="10"/>
<path d="M1129.52 2.21191C1153.99 78.1148 1241.49 136.405 1286.76 207.274C1306.96 238.831 1305.24 247.129 1255.13 255.803C1219.58 261.952 1186.33 276.72 1159.22 291.46C1100.67 323.408 1030.45 375.353 1018.59 425.053C1009.05 464.992 1073.63 478.045 1123.79 489.201C1158.42 496.996 1252.72 515.891 1227.54 550.378C1207.2 578.198 1125.1 569.357 1087.64 574.712C999.531 587.262 1035.26 637.938 1050.77 680.094C1077.83 753.724 1116.54 826.238 1129.36 901.486" stroke="#F8F9FE" stroke-opacity="0.78" stroke-width="3" stroke-miterlimit="10"/>
<path d="M1059.06 2.14062C1077.41 59.7615 1151.46 94.6381 1196.48 143.934C1218.68 168.226 1211.09 172.047 1180.61 187.275C1152.89 200.888 1127.78 216.357 1105.75 233.391C1054.56 273.162 997.091 325.889 985.808 377.513C979.042 408.402 1001.01 426.195 1035.9 445.454C1124.93 494.624 1068.14 536.752 1018.4 588.195C980.785 627.074 992.367 664.474 1004.98 707.732C1023.76 772.283 1051.49 836.026 1059.04 901.568" stroke="#F8F9FE" stroke-opacity="0.78" stroke-width="3" stroke-miterlimit="10"/>
<path d="M988.613 2.04395C1002.69 45.1341 1061.77 45.2736 1104.8 72.4525C1141.95 95.9917 1073.29 140.978 1053.08 165.243C1012.92 213.493 967.307 267.46 958.547 322.264C954.671 346.584 951.46 370.57 945.199 394.778C927.173 464.197 941.254 533.239 948.341 603.145C952.928 648.48 954.923 694.234 962.652 739.374C971.825 793.481 987.283 847.141 988.636 901.653" stroke="#F8F9FE" stroke-opacity="0.78" stroke-width="3" stroke-miterlimit="10"/>
<path d="M918.173 2.04395C911.774 41.6339 988.053 14.5945 1016.45 20.6048C1066.51 31.2728 1010.57 100.189 998.442 121.386C968.123 174.307 926.36 229.111 917.943 285.589C912.944 319.154 898.083 336.739 861.159 360.683C825.794 383.511 801.094 403.285 807.653 436.613C819.533 496.772 855.196 556.108 880.079 614.482C919.641 707.342 919.664 805.892 918.219 901.597" stroke="#F8F9FE" stroke-opacity="0.78" stroke-width="3" stroke-miterlimit="10"/>
<path d="M847.718 2.07129C837.26 42.2748 920.832 12.1954 947.551 16.3928C1006.24 25.5966 951.954 101.137 939.042 123.226C907.966 176.412 863.474 229.208 850.814 285.658C843.131 319.837 829.095 338.384 794.442 365.256C762.174 390.287 735.134 412.069 740.615 445.663C750.5 506.045 792.194 565.674 819.371 623.518C862.946 716.378 844.186 806.393 847.695 901.54" stroke="#F8F9FE" stroke-opacity="0.78" stroke-width="3" stroke-miterlimit="10"/>
<path d="M777.267 2.0874C772.496 44.1875 867.054 25.9195 904.276 35.8762C972.826 54.2418 914.986 117.678 893.176 146.042C854.348 196.635 795.66 247.715 780.386 303.76C770.914 338.428 764.492 370.92 748.989 405.029C734.15 437.703 715.184 472.175 720.505 506.535C728.6 558.69 764.745 609.659 788.481 659.512C809.443 703.509 821.759 744.103 808.09 789.717C796.807 827.466 778.78 862.706 777.267 901.515" stroke="#F8F9FE" stroke-opacity="0.78" stroke-width="3" stroke-miterlimit="10"/>
<path d="M706.896 2.13135C727.973 49.7676 808.357 41.0101 868.376 60.6169C949.012 86.973 888.237 141.833 854.065 175.677C806.775 222.491 729.372 272.079 710.497 327.483C696.966 367.185 710.245 416.174 711.07 456.782C711.919 499.188 708.777 542.976 715.29 585.243C721.735 627.204 750.219 667.017 769.782 707.039C787.303 742.906 802.325 780.46 772.832 815.629C747.306 846.043 713.96 865.692 706.896 901.601" stroke="#F8F9FE" stroke-opacity="0.78" stroke-width="3" stroke-miterlimit="10"/>
<path d="M636.458 2.14062C662.121 53.5839 758.169 55.4944 825.114 80.1074C912.998 112.404 853.667 161.309 808.189 198.529C754.316 242.665 662.671 290.175 640.012 345.621C622.17 389.381 654.713 452.635 665.561 496.59C677.877 546.513 685.858 596.13 695.123 646.151C701.43 680.19 723.011 710.465 738.836 743.069C753.422 773.064 770.233 810.563 729.983 835.998C691.477 860.332 647.925 863.61 636.389 901.54" stroke="#F8F9FE" stroke-opacity="0.78" stroke-width="3" stroke-miterlimit="10"/>
<path d="M566.054 2.13135C593.094 53.0865 688.408 57.8418 755.078 83.6959C841.792 117.29 784.594 163.964 738.45 202.229C685.083 246.476 598.896 292.732 574.173 347.425C554.083 391.867 590.227 457.465 602.932 501.852C617.656 553.17 627.449 603.581 636.875 655.15C642.723 687.056 662.102 715.434 676.62 746.03C690.518 775.314 707.81 813.356 666.643 837.3C625.477 861.244 576.581 861.941 565.985 901.628" stroke="#F8F9FE" stroke-opacity="0.78" stroke-width="3" stroke-miterlimit="10"/>
<path d="M495.53 2.13135C515.597 48.15 584.331 49.5445 639.442 74.8687C705.951 105.548 664.325 152.264 636.713 189.678C603.068 235.223 554.149 281.255 538.371 330.928C524.335 375.092 547.338 429.7 556.145 473.948C565.571 521.361 571.029 568.509 578.001 615.964C582.794 648.665 598.986 679.163 610.866 711.028C623.801 745.653 634.465 779.874 597.839 810.623C559.631 842.697 506.24 859.222 495.461 901.614" stroke="#F8F9FE" stroke-opacity="0.78" stroke-width="3" stroke-miterlimit="10"/>
<path d="M425.062 2.09814C431.484 40.3912 468.637 37.9787 504.3 62.2292C541.568 87.5813 524.689 139.052 523.037 170.791C518.45 258.213 517.189 344.951 521.134 432.4C524.62 509.433 528.977 582.519 547.944 658.673C557.989 699.002 562.599 734.896 529.918 772.353C491.87 815.931 436.598 850.933 425.108 901.553" stroke="#F8F9FE" stroke-opacity="0.78" stroke-width="3" stroke-miterlimit="10"/>
<path d="M354.548 2.0874C350.076 26.7004 365.373 31.9298 377.23 51.1879C386.22 65.7605 379.799 82.6897 384.913 97.9177C391.312 117.092 403.123 136.281 414.269 154.562C440.299 197.248 476.879 240.227 489.952 285.423C500.18 320.634 486.443 361.047 481.168 396.523C470.113 470.683 472.223 539.529 483.759 613.536C490.64 658.16 491.052 696.634 461.559 738.901C423.718 793.148 367.185 841.955 354.617 901.515" stroke="#F8F9FE" stroke-opacity="0.78" stroke-width="3" stroke-miterlimit="10"/>
<path d="M284.208 2.09814C284.048 54.5873 285.791 102.614 328.38 150.139C364.868 190.844 421.217 231.94 434.771 278.796C444.61 312.738 428.625 351.645 419.841 385.308C400.852 458.073 405.828 526.278 414.268 599.462C419.543 645.23 418.855 683.314 390.852 727.115C353.676 785.029 298.565 839.233 284.231 901.553" stroke="#F8F9FE" stroke-opacity="0.78" stroke-width="3" stroke-miterlimit="10"/>
<path d="M213.765 2.07129C214.063 59.483 210.439 114.58 250.138 168.017C279.953 208.04 323.872 248.006 335.27 292.128C344.054 326.154 330.568 363.931 323.642 397.846C308.919 469.83 312.405 538.593 319.055 610.828C323.115 655.034 322.817 693.481 299.493 736.334C269.495 791.389 226.241 843.459 213.811 901.485" stroke="#F8F9FE" stroke-opacity="0.78" stroke-width="3" stroke-miterlimit="10"/>
<path d="M143.334 2.11475C143.334 67.3497 133.747 136.461 163.86 199.563C182.207 238.093 208.788 276.107 214.613 316.422C219.544 350.643 211.654 386.301 207.32 420.452C198.399 491.098 200.784 560.614 204.728 631.357C207.022 672.258 208.513 711.639 193.972 751.94C175.969 801.947 148.54 850.127 143.334 901.57" stroke="#F8F9FE" stroke-opacity="0.78" stroke-width="5" stroke-miterlimit="10"/>
<path d="M72.8788 2.15771C72.8788 77.3354 64.5078 155.009 78.3601 229.769C91.5821 300.236 96.4567 371.19 92.9462 442.082C89.5749 511.807 90.8133 581.323 92.2123 651.007C93.9324 735.095 71.5716 817.971 72.833 901.669" stroke="#F8F9FE" stroke-opacity="0.78" stroke-width="5" stroke-miterlimit="10"/>
<defs>
<linearGradient id="paint0_linear_1101_2857" x1="0" y1="0" x2="1480" y2="900" gradientUnits="userSpaceOnUse">
<stop stop-color="#F5E5FF"/>
<stop offset="0.438503" stop-color="#E8DAFE"/>
<stop offset="1" stop-color="#C0CFFA"/>
</linearGradient>
</defs>
</svg>
