<svg width="181" height="52" viewBox="0 0 181 52" fill="none" xmlns="http://www.w3.org/2000/svg">
<path d="M64.2045 40.3196C62.5497 40.3196 61.1186 39.968 59.9112 39.2649C58.7109 38.5547 57.7841 37.5675 57.1307 36.3033C56.4773 35.032 56.1506 33.5582 56.1506 31.8821C56.1506 30.1918 56.4773 28.7145 57.1307 27.4503C57.7841 26.179 58.7109 25.1918 59.9112 24.4886C61.1186 23.7784 62.5497 23.4233 64.2045 23.4233C65.8594 23.4233 67.2869 23.7784 68.4872 24.4886C69.6946 25.1918 70.625 26.179 71.2784 27.4503C71.9318 28.7145 72.2585 30.1918 72.2585 31.8821C72.2585 33.5582 71.9318 35.032 71.2784 36.3033C70.625 37.5675 69.6946 38.5547 68.4872 39.2649C67.2869 39.968 65.8594 40.3196 64.2045 40.3196ZM64.2259 36.804C64.9787 36.804 65.6072 36.5909 66.1115 36.1648C66.6158 35.7315 66.9957 35.142 67.2514 34.3963C67.5142 33.6506 67.6456 32.8018 67.6456 31.8501C67.6456 30.8984 67.5142 30.0497 67.2514 29.304C66.9957 28.5582 66.6158 27.9687 66.1115 27.5355C65.6072 27.1023 64.9787 26.8857 64.2259 26.8857C63.4659 26.8857 62.8267 27.1023 62.3082 27.5355C61.7969 27.9687 61.4098 28.5582 61.147 29.304C60.8913 30.0497 60.7635 30.8984 60.7635 31.8501C60.7635 32.8018 60.8913 33.6506 61.147 34.3963C61.4098 35.142 61.7969 35.7315 62.3082 36.1648C62.8267 36.5909 63.4659 36.804 64.2259 36.804ZM82.303 40.3196C80.6482 40.3196 79.217 39.968 78.0097 39.2649C76.8094 38.5547 75.8825 37.5675 75.2291 36.3033C74.5757 35.032 74.249 33.5582 74.249 31.8821C74.249 30.1918 74.5757 28.7145 75.2291 27.4503C75.8825 26.179 76.8094 25.1918 78.0097 24.4886C79.217 23.7784 80.6482 23.4233 82.303 23.4233C83.9578 23.4233 85.3854 23.7784 86.5857 24.4886C87.793 25.1918 88.7234 26.179 89.3768 27.4503C90.0303 28.7145 90.357 30.1918 90.357 31.8821C90.357 33.5582 90.0303 35.032 89.3768 36.3033C88.7234 37.5675 87.793 38.5547 86.5857 39.2649C85.3854 39.968 83.9578 40.3196 82.303 40.3196ZM82.3243 36.804C83.0771 36.804 83.7057 36.5909 84.2099 36.1648C84.7142 35.7315 85.0942 35.142 85.3499 34.3963C85.6126 33.6506 85.744 32.8018 85.744 31.8501C85.744 30.8984 85.6126 30.0497 85.3499 29.304C85.0942 28.5582 84.7142 27.9687 84.2099 27.5355C83.7057 27.1023 83.0771 26.8857 82.3243 26.8857C81.5643 26.8857 80.9251 27.1023 80.4067 27.5355C79.8953 27.9687 79.5082 28.5582 79.2455 29.304C78.9898 30.0497 78.8619 30.8984 78.8619 31.8501C78.8619 32.8018 78.9898 33.6506 79.2455 34.3963C79.5082 35.142 79.8953 35.7315 80.4067 36.1648C80.9251 36.5909 81.5643 36.804 82.3243 36.804ZM99.0378 40.2663C97.7949 40.2663 96.6692 39.9467 95.6607 39.3075C94.6592 38.6612 93.8638 37.7131 93.2743 36.4631C92.6919 35.206 92.4007 33.6648 92.4007 31.8395C92.4007 29.9645 92.7026 28.4055 93.3063 27.1626C93.9099 25.9126 94.7125 24.9787 95.7139 24.3608C96.7224 23.7358 97.8268 23.4233 99.0271 23.4233C99.9433 23.4233 100.707 23.5795 101.318 23.892C101.936 24.1974 102.433 24.581 102.809 25.0426C103.193 25.4972 103.484 25.9446 103.683 26.3849H103.821V18.1818H108.349V40H103.874V37.3793H103.683C103.47 37.8338 103.168 38.2848 102.777 38.7322C102.394 39.1726 101.893 39.5384 101.275 39.8295C100.664 40.1207 99.9185 40.2663 99.0378 40.2663ZM100.476 36.6548C101.208 36.6548 101.825 36.456 102.33 36.0582C102.841 35.6534 103.232 35.0888 103.502 34.3643C103.779 33.6399 103.917 32.7912 103.917 31.8182C103.917 30.8452 103.782 30 103.512 29.2827C103.242 28.5653 102.852 28.0114 102.34 27.6207C101.829 27.2301 101.208 27.0348 100.476 27.0348C99.7303 27.0348 99.1017 27.2372 98.5903 27.642C98.079 28.0469 97.6919 28.608 97.4291 29.3253C97.1663 30.0426 97.0349 30.8736 97.0349 31.8182C97.0349 32.7699 97.1663 33.6115 97.4291 34.343C97.699 35.0675 98.0861 35.6357 98.5903 36.0476C99.1017 36.4524 99.7303 36.6548 100.476 36.6548ZM116.319 18.1818V40H111.78V18.1818H116.319ZM127.111 40.3196C125.428 40.3196 123.979 39.9787 122.765 39.2969C121.557 38.608 120.627 37.6349 119.974 36.3778C119.32 35.1136 118.994 33.6186 118.994 31.8928C118.994 30.2095 119.32 28.7322 119.974 27.4609C120.627 26.1896 121.547 25.1989 122.733 24.4886C123.926 23.7784 125.325 23.4233 126.93 23.4233C128.01 23.4233 129.015 23.5973 129.945 23.9453C130.883 24.2862 131.7 24.8011 132.396 25.4901C133.099 26.179 133.646 27.0455 134.036 28.0895C134.427 29.1264 134.622 30.3409 134.622 31.733V32.9794H120.805V30.1669H130.35C130.35 29.5135 130.208 28.9347 129.924 28.4304C129.64 27.9261 129.246 27.532 128.741 27.2479C128.244 26.9567 127.665 26.8111 127.005 26.8111C126.316 26.8111 125.705 26.9709 125.173 27.2905C124.647 27.603 124.235 28.0256 123.937 28.5582C123.638 29.0838 123.486 29.6697 123.479 30.3161V32.9901C123.479 33.7997 123.628 34.4993 123.926 35.0888C124.231 35.6783 124.661 36.1328 125.215 36.4524C125.769 36.772 126.426 36.9318 127.186 36.9318C127.69 36.9318 128.152 36.8608 128.571 36.7188C128.99 36.5767 129.349 36.3636 129.647 36.0795C129.945 35.7955 130.173 35.4474 130.329 35.0355L134.526 35.3125C134.313 36.321 133.876 37.2017 133.216 37.9545C132.562 38.7003 131.717 39.2827 130.68 39.7017C129.65 40.1136 128.461 40.3196 127.111 40.3196ZM149.78 40V43.4411H135.451V40H149.78ZM157.478 18.1818V40H152.865V22.5604H152.737L147.741 25.6925V21.6016L153.142 18.1818H157.478ZM163.887 40.277C163.184 40.277 162.58 40.0284 162.076 39.5312C161.579 39.027 161.33 38.4233 161.33 37.7202C161.33 37.0241 161.579 36.4276 162.076 35.9304C162.58 35.4332 163.184 35.1847 163.887 35.1847C164.569 35.1847 165.166 35.4332 165.677 35.9304C166.188 36.4276 166.444 37.0241 166.444 37.7202C166.444 38.1889 166.323 38.6186 166.082 39.0092C165.847 39.3928 165.538 39.7017 165.155 39.9361C164.771 40.1634 164.349 40.277 163.887 40.277ZM176.595 18.1818V40H171.982V22.5604H171.854L166.858 25.6925V21.6016L172.259 18.1818H176.595Z" fill="url(#paint0_linear_1114_2964)"/>
<path d="M49.5322 40.1113H39.0693L44.6445 14.04C44.8916 12.9443 44.7412 11.9453 44.1719 11.2793C43.6348 10.624 42.7002 10.248 41.5723 10.248H36.2764L29.8848 40.1113H19.4219L25.8135 10.248H16.8545L10.4629 40.1113H0L6.3916 10.248L1.60059 0H41.5723C45.8047 0 49.6611 1.75098 52.1318 4.82324C54.6348 7.89551 55.5479 12.0635 54.667 16.1992L49.5322 40.1113Z" fill="url(#paint1_linear_1114_2964)"/>
<defs>
<linearGradient id="paint0_linear_1114_2964" x1="118" y1="14.65" x2="118" y2="40.3" gradientUnits="userSpaceOnUse">
<stop stop-color="white"/>
<stop offset="1" stop-color="#C7D1F9"/>
</linearGradient>
<linearGradient id="paint1_linear_1114_2964" x1="27.4972" y1="0" x2="27.4972" y2="40.1113" gradientUnits="userSpaceOnUse">
<stop stop-color="white"/>
<stop offset="0.935" stop-color="#C7D1F9"/>
</linearGradient>
</defs>
</svg>
